<svg width="100" height="100" viewBox="0 0 100 100" fill="none" xmlns="http://www.w3.org/2000/svg">
<path d="M85.4166 37.5H79.1666V29.1666C79.1666 13.084 66.0828 0 50 0C33.9172 0 20.8334 13.084 20.8334 29.1666V37.5H14.5834C13.4318 37.5 12.5 38.4318 12.5 39.5834V91.6668C12.5 96.2627 16.2373 100 20.8334 100H79.1668C83.7627 100 87.5 96.2627 87.5 91.6666V39.5834C87.5 38.4318 86.5682 37.5 85.4166 37.5ZM56.2379 81.0201C56.3029 81.608 56.1139 82.198 55.7191 82.6396C55.3244 83.0811 54.7588 83.3334 54.1668 83.3334H45.8334C45.2414 83.3334 44.6758 83.0811 44.2811 82.6396C43.8863 82.1982 43.6971 81.6082 43.7623 81.0201L45.0766 69.2018C42.9424 67.6494 41.6668 65.1937 41.6668 62.5C41.6668 57.9041 45.4041 54.1666 50.0002 54.1666C54.5963 54.1666 58.3336 57.9039 58.3336 62.5C58.3336 65.1937 57.058 67.6494 54.9238 69.2018L56.2379 81.0201ZM66.6666 37.5H33.3334V29.1666C33.3334 19.9768 40.8102 12.5 50 12.5C59.1898 12.5 66.6666 19.9768 66.6666 29.1666V37.5V37.5Z" fill="#009688"/>
<path d="M88.9166 37.5H82.6666V29.1666C82.6666 13.084 69.5828 0 53.5 0C37.4172 0 24.3334 13.084 24.3334 29.1666V37.5H18.0834C16.9318 37.5 16 38.4318 16 39.5834V91.6668C16 96.2627 19.7373 100 24.3334 100H82.6668C87.2627 100 91 96.2627 91 91.6666V39.5834C91 38.4318 90.0682 37.5 88.9166 37.5ZM59.7379 81.0201C59.8029 81.608 59.6139 82.198 59.2191 82.6396C58.8244 83.0811 58.2588 83.3334 57.6668 83.3334H49.3334C48.7414 83.3334 48.1758 83.0811 47.7811 82.6396C47.3863 82.1982 47.1971 81.6082 47.2623 81.0201L48.5766 69.2018C46.4424 67.6494 45.1668 65.1937 45.1668 62.5C45.1668 57.9041 48.9041 54.1666 53.5002 54.1666C58.0963 54.1666 61.8336 57.9039 61.8336 62.5C61.8336 65.1937 60.558 67.6494 58.4238 69.2018L59.7379 81.0201ZM70.1666 37.5H36.8334V29.1666C36.8334 19.9768 44.3102 12.5 53.5 12.5C62.6898 12.5 70.1666 19.9768 70.1666 29.1666V37.5V37.5Z" fill="#7CA1B3"/>
<g clip-path="url(#clip0)">
<path d="M79.8332 100C84.4293 100 88.1666 96.2627 88.1666 91.6668V39.5834C88.1666 38.4318 87.2348 37.5 86.0832 37.5H89.5832C90.7348 37.5 91.6666 38.4318 91.6666 39.5834V91.6668C91.6666 96.2627 87.9293 100 83.3332 100H79.8332Z" fill="white"/>
<path d="M83.3332 37.5H79.8332V29.1666C79.8332 13.6715 67.6878 0.959914 52.4166 0.0518874C52.9956 0.0174597 53.5791 0 54.1666 0C70.2494 0 83.3332 13.084 83.3332 29.1666V37.5Z" fill="white"/>
<path d="M48.4475 82.6396C48.0527 82.198 47.8637 81.608 47.9287 81.0201L49.2428 69.2018C47.1086 67.6494 45.833 65.1937 45.833 62.5C45.833 58.504 48.6581 55.1572 52.4164 54.3513C51.852 54.2303 51.2665 54.1666 50.6664 54.1666C46.0703 54.1666 42.333 57.9039 42.333 62.5C42.333 65.1937 43.6086 67.6494 45.7428 69.2018L44.4287 81.0201C44.3637 81.608 44.5527 82.198 44.9475 82.6396C45.3422 83.0811 45.9078 83.3334 46.4998 83.3334H49.9998C49.4078 83.3334 48.8422 83.0811 48.4475 82.6396Z" fill="white"/>
<path d="M37.5 37.5H34V29.1666C34 19.9768 41.4768 12.5 50.6666 12.5C51.2575 12.5 51.8414 12.5309 52.4166 12.5912C44.0461 13.4686 37.5 20.5677 37.5 29.1666V37.5Z" fill="white"/>
</g>
<defs>
<clipPath id="clip0">
<rect width="100" height="100" fill="white"/>
</clipPath>
</defs>
</svg>
