<svg width="100" height="100" viewBox="0 0 100 100" fill="none" xmlns="http://www.w3.org/2000/svg">
<g clip-path="url(#clip0)">
<path d="M79.8332 100C84.4293 100 88.1666 96.2627 88.1666 91.6668V39.5834C88.1666 38.4318 87.2348 37.5 86.0832 37.5H89.5832C90.7348 37.5 91.6666 38.4318 91.6666 39.5834V91.6668C91.6666 96.2627 87.9293 100 83.3332 100H79.8332Z" fill="white"/>
<path d="M83.3332 37.5H79.8332V29.1666C79.8332 13.6715 67.6878 0.959914 52.4166 0.0518874C52.9956 0.0174597 53.5791 0 54.1666 0C70.2494 0 83.3332 13.084 83.3332 29.1666V37.5Z" fill="white"/>
<path d="M48.4475 82.6396C48.0527 82.198 47.8637 81.608 47.9287 81.0201L49.2428 69.2018C47.1086 67.6494 45.833 65.1937 45.833 62.5C45.833 58.504 48.6581 55.1572 52.4164 54.3513C51.852 54.2303 51.2665 54.1666 50.6664 54.1666C46.0703 54.1666 42.333 57.9039 42.333 62.5C42.333 65.1937 43.6086 67.6494 45.7428 69.2018L44.4287 81.0201C44.3637 81.608 44.5527 82.198 44.9475 82.6396C45.3422 83.0811 45.9078 83.3334 46.4998 83.3334H49.9998C49.4078 83.3334 48.8422 83.0811 48.4475 82.6396Z" fill="white"/>
<path d="M37.5 37.5H34V29.1666C34 19.9768 41.4768 12.5 50.6666 12.5C51.2575 12.5 51.8414 12.5309 52.4166 12.5912C44.0461 13.4686 37.5 20.5677 37.5 29.1666V37.5Z" fill="white"/>
</g>
<path d="M84.9166 37.5H78.6666V29.1666C78.6666 13.084 65.5828 0 49.5 0C33.4172 0 20.3334 13.084 20.3334 29.1666V37.5H14.0834C12.9318 37.5 12 38.4318 12 39.5834V91.6668C12 96.2627 15.7373 100 20.3334 100H78.6668C83.2627 100 87 96.2627 87 91.6666V39.5834C87 38.4318 86.0682 37.5 84.9166 37.5ZM55.7379 81.0201C55.8029 81.608 55.6139 82.198 55.2191 82.6396C54.8244 83.0811 54.2588 83.3334 53.6668 83.3334H45.3334C44.7414 83.3334 44.1758 83.0811 43.7811 82.6396C43.3863 82.1982 43.1971 81.6082 43.2623 81.0201L44.5766 69.2018C42.4424 67.6494 41.1668 65.1937 41.1668 62.5C41.1668 57.9041 44.9041 54.1666 49.5002 54.1666C54.0963 54.1666 57.8336 57.9039 57.8336 62.5C57.8336 65.1937 56.558 67.6494 54.4238 69.2018L55.7379 81.0201ZM66.1666 37.5H32.8334V29.1666C32.8334 19.9768 40.3102 12.5 49.5 12.5C58.6898 12.5 66.1666 19.9768 66.1666 29.1666V37.5Z" fill="#7CA1B3"/>
<defs>
<clipPath id="clip0">
<rect width="100" height="100" fill="white"/>
</clipPath>
</defs>
</svg>
